<?xml version="1.0" encoding="UTF-8" standalone="no"?>
<svg
   viewBox="0 0 1112.77 1113.96"
   version="1.1"
   id="svg50"
   sodipodi:docname="img-1.svg"
   inkscape:version="1.3.2 (091e20e, 2023-11-25, custom)"
   xmlns:inkscape="http://www.inkscape.org/namespaces/inkscape"
   xmlns:sodipodi="http://sodipodi.sourceforge.net/DTD/sodipodi-0.dtd"
   xmlns="http://www.w3.org/2000/svg"
   xmlns:svg="http://www.w3.org/2000/svg">
  <sodipodi:namedview
     id="namedview50"
     pagecolor="#ffffff"
     bordercolor="#000000"
     borderopacity="0.25"
     inkscape:showpageshadow="2"
     inkscape:pageopacity="0.0"
     inkscape:pagecheckerboard="0"
     inkscape:deskcolor="#d1d1d1"
     inkscape:zoom="0.24978144"
     inkscape:cx="518.45326"
     inkscape:cy="490.42876"
     inkscape:window-width="1920"
     inkscape:window-height="1001"
     inkscape:window-x="-9"
     inkscape:window-y="-9"
     inkscape:window-maximized="1"
     inkscape:current-layer="g49" />
  <defs
     id="defs1">
    <style
       id="style1">
      .cls-1 {
        fill: #c7b299;
      }

      .cls-1, .cls-2, .cls-3, .cls-4, .cls-5, .cls-6, .cls-7, .cls-8, .cls-9 {
        stroke-width: 0px;
      }

      .cls-2 {
        fill: #4d4d4d;
      }

      .cls-10 {
        mix-blend-mode: multiply;
        opacity: .7;
      }

      .cls-3 {
        fill: #bcd2fd;
      }

      .cls-3, .cls-5 {
        opacity: .5;
      }

      .cls-4 {
        fill: #e0a4ab;
      }

      .cls-5 {
        fill: #8cc63f;
      }

      .cls-11 {
        isolation: isolate;
      }

      .cls-7 {
        fill: #4874ff;
      }

      .cls-12 {
        stroke: #fff;
      }

      .cls-12, .cls-13 {
        stroke-linecap: round;
        stroke-linejoin: round;
      }

      .cls-12, .cls-13, .cls-14 {
        fill: none;
      }

      .cls-12, .cls-14 {
        stroke-width: 5px;
      }

      .cls-8 {
        fill: #204560;
      }

      .cls-13 {
        stroke-width: 8px;
      }

      .cls-13, .cls-14 {
        stroke: #000;
      }

      .cls-14 {
        stroke-miterlimit: 10;
      }

      .cls-9 {
        fill: #ffcdc2;
      }
    </style>
  </defs>
  <g
     class="cls-11"
     id="g50">
    <g
       id="Layer_2"
       data-name="Layer 2">
      <g
         id="Layer_1-2"
         data-name="Layer 1">
        <g
           id="g49">
          <g
             id="g2">
            <rect
               class="cls-3"
               x="481.81"
               width="268.05"
               height="840.92"
               id="rect1"
               style="fill:#1f6f36;fill-opacity:1" />
            <rect
               class="cls-3"
               x="802.26"
               width="268.05"
               height="840.92"
               id="rect2"
               style="fill:#1f6f36;fill-opacity:1" />
          </g>
          <g
             id="g7">
            <line
               class="cls-14"
               x1="2.5"
               y1="177.84"
               x2="2.5"
               y2="160.49"
               id="line2" />
            <path
               class="cls-14"
               d="M2.5,135.05v-24.59c0-15.22,12.34-27.56,27.56-27.56h304.97c15.22,0,27.56,12.34,27.56,27.56v226.81c0,15.22-12.34,27.56-27.56,27.56H30.06c-15.22,0-27.56-12.34-27.56-27.56v-143.38"
               id="path2" />
            <g
               id="g6">
              <line
                 class="cls-14"
                 x1="67.52"
                 y1="167.08"
                 x2="297.56"
                 y2="167.08"
                 id="line3" />
              <line
                 class="cls-14"
                 x1="67.52"
                 y1="204.93"
                 x2="297.56"
                 y2="204.93"
                 id="line4" />
              <line
                 class="cls-14"
                 x1="67.52"
                 y1="242.79"
                 x2="297.56"
                 y2="242.79"
                 id="line5" />
              <line
                 class="cls-14"
                 x1="67.52"
                 y1="280.65"
                 x2="297.56"
                 y2="280.65"
                 id="line6" />
            </g>
          </g>
          <path
             class="cls-5"
             d="M268.15,537.82h0v573.64H.1v-305.59c0-147.94,120.11-268.05,268.05-268.05Z"
             id="path7" />
          <path
             class="cls-7"
             d="M488.52,457.2s62.55,41.51,77.87,112.97c15.32,71.46,13.06,125.62,13.06,125.62h-62.43l-28.49-238.6Z"
             id="path8"
             style="fill:#1f6f36;fill-opacity:1" />
          <path
             class="cls-7"
             d="M185.7,773.53s86.4,46.11,209.2,33.83c82.17-8.22,108.27-48.55,108.27-48.55v-58.92s-5.29-24.66-65.2-25.56c-59.91-.9-178.72-17.2-178.72-17.2,0,0-82.6,25.91-73.55,116.4Z"
             id="path9"
             style="fill:#1f6f36;fill-opacity:1" />
          <path
             class="cls-7"
             d="M475.71,767.58s64.85,27.96,162.88,26.34c64.29-1.06,84.3-37.8,84.3-37.8v-45.88s7.76-17.7-53.29-36.01c-44.68-13.41-145.65-43.13-145.65-43.13,0,0-55.28,66.02-48.24,136.47Z"
             id="path10"
             style="fill:#1f6f36;fill-opacity:1" />
          <path
             class="cls-8"
             d="M500.64,1111.46h306.23l-224.22-172.16s-62.32-59.06-203.74-32.04c-141.42,27.01,35.31,204.21,121.73,204.21Z"
             id="path11"
             style="fill:#f8eedf;fill-opacity:1" />
          <path
             class="cls-8"
             d="M72.24,921.29s-29.13,135.65,121.29,190.17h307.11s14.87-103.31-27.48-140.39c-42.35-37.08-183.46-56.38-183.46-56.38l-217.47,6.59Z"
             id="path12"
             style="fill:#f8eedf;fill-opacity:1" />
          <path
             class="cls-7"
             d="M98.03,850.73l-38.5,74.64s68.6,39.86,245.29,9.26c176.69-30.6,249.73-13.03,249.73-13.03l-24-216.19-432.52,145.32Z"
             id="path13"
             style="fill:#1f6f36;fill-opacity:1" />
          <path
             class="cls-7"
             d="M114.35,692.55c4.49,49.62.52,97.96-13.51,144.79h251.05l-237.55-144.79Z"
             id="path14"
             style="fill:#1f6f36;fill-opacity:1" />
          <path
             class="cls-7"
             d="M394.41,407.64l18.93,6.66c69.31,27.09,118.55,68.82,130.85,142.21,1.78,10.61,2.8,21.52,2.8,32.59v248.24h-186.61l36.19-382.14-2.16-47.56Z"
             id="path15"
             style="fill:#1f6f36;fill-opacity:1" />
          <path
             class="cls-7"
             d="M312.88,398c-49.52,1.25-79.43,8.55-123.99,22.46l109.78,236.54v180.35h109.2v-382.14l-94.98-57.2Z"
             id="path16"
             style="fill:#1f6f36;fill-opacity:1" />
          <path
             class="cls-7"
             d="M188.89,420.46s-63.23,22.97-80.7,130.87c-17.29,106.71-21.64,172.77,53.04,220.65,74.68,47.88,137.44-34.74,137.44-114.99s-109.78-236.54-109.78-236.54Z"
             id="path17"
             style="fill:#1f6f36;fill-opacity:1" />
          <polygon
             class="cls-7"
             points="468.95 713.93 526.32 721.39 491.82 786.12 445.65 786.12 468.95 713.93"
             id="polygon17"
             style="fill:#1f6f36;fill-opacity:1" />
          <g
             id="g22">
            <path
               class="cls-9"
               d="M513.17,709.95c6.68-3.24,14.17-4.46,21.55-3.61,24.22,2.81,83.62,10.28,99.72,17.75,14.99,6.96,35.11,31.66,44.69,44.21,3.12,4.1,2.4,9.93-1.63,13.15h0c-4.09,3.27-10.07,2.61-13.34-1.49l-3.37-4.22,3.1,8.4c1.58,4.27-.12,9.05-4.03,11.38h0c-3.58,2.13-8.13,1.66-11.2-1.15l-14.07-12.89,3.37,7.22c2.78,5.96-1.14,12.9-7.68,13.58h0c-3.17.33-6.29-.93-8.34-3.37l-17.57-20.91c-4.15-4.93-9.47-8.74-15.48-11.06l-23.49-9.07,33.74,20.37c3.68,3,3.75,8.6.13,11.68h0c-2.43,2.07-5.9,2.41-8.68.83l-37.15-15.02-36.14-7.19c-10.34-2.06-19.61-8.06-25.21-17-9.18-14.65-4.37-29.26,21.08-41.62Z"
               id="path18" />
            <g
               class="cls-10"
               id="g19">
              <path
                 class="cls-4"
                 d="M655.78,769.21c-9.29-6.97-17.58-15.1-25.58-23.47,0,0,1.01.65,1.01.65-8.26-2.81-16.4-5.93-24.33-9.59-2.64-1.26-5.28-2.5-7.85-3.96,11.54,1.81,22.74,5.13,33.79,8.83.4.13.74.37,1.01.65,1.97,2.11,3.93,4.23,5.84,6.39,5.75,6.53,11.31,13.22,16.11,20.51h0Z"
                 id="path19" />
            </g>
            <g
               class="cls-10"
               id="g20">
              <path
                 class="cls-4"
                 d="M632.01,778.26c-7.4-5.83-13.75-12.84-19.71-20.08,0,0,1.08.76,1.08.76-6.22-2.3-12.35-4.9-18.23-8.01-1.97-1.05-3.92-2.14-5.81-3.39,4.46.54,8.79,1.56,13.11,2.71,4.27,1.17,8.48,2.51,12.64,4,.43.15.79.41,1.06.74,5.95,7.27,11.59,14.87,15.88,23.27h0Z"
                 id="path20" />
            </g>
            <g
               class="cls-10"
               id="g21">
              <path
                 class="cls-4"
                 d="M669.6,758.78c-5.98-4.17-11.04-9.47-15.74-14.98,0,0,.66.56.66.56-4.87-2.81-9.57-5.96-13.92-9.56-1.45-1.23-2.88-2.48-4.22-3.91,7.34,1.95,14.15,5.38,20.68,9.17,2.75,2.69,4.86,6.05,7.12,9.19,2.02,3.05,3.93,6.15,5.42,9.53h0Z"
                 id="path21" />
            </g>
          </g>
          <g
             id="g26">
            <path
               class="cls-9"
               d="M704.45,709.95c6.68-3.24,14.17-4.46,21.55-3.61,24.22,2.81,83.62,10.28,99.72,17.75,14.99,6.96,35.11,31.66,44.69,44.21,3.12,4.1,2.4,9.93-1.63,13.15h0c-4.09,3.27-10.07,2.61-13.34-1.49l-3.37-4.22,3.1,8.4c1.58,4.27-.12,9.05-4.03,11.38h0c-3.58,2.13-8.13,1.66-11.2-1.15l-14.07-12.89,3.37,7.22c2.78,5.96-1.14,12.9-7.68,13.58h0c-3.17.33-6.29-.93-8.34-3.37l-17.57-20.91c-4.15-4.93-9.47-8.74-15.48-11.06l-23.49-9.07,33.74,20.37c3.68,3,3.75,8.6.13,11.68h0c-2.43,2.07-5.9,2.41-8.68.83l-37.15-15.02-36.14-7.19c-10.34-2.06-19.61-8.06-25.21-17-9.18-14.65-4.37-29.26,21.08-41.62Z"
               id="path22" />
            <g
               class="cls-10"
               id="g23">
              <path
                 class="cls-4"
                 d="M847.06,769.21c-9.29-6.97-17.58-15.1-25.58-23.47,0,0,1.01.65,1.01.65-8.26-2.81-16.4-5.93-24.33-9.59-2.64-1.26-5.28-2.5-7.85-3.96,11.54,1.81,22.74,5.13,33.79,8.83.4.13.74.37,1.01.65,1.97,2.11,3.93,4.23,5.84,6.39,5.75,6.53,11.31,13.22,16.11,20.51h0Z"
                 id="path23" />
            </g>
            <g
               class="cls-10"
               id="g24">
              <path
                 class="cls-4"
                 d="M823.3,778.26c-7.4-5.83-13.75-12.84-19.71-20.08,0,0,1.08.76,1.08.76-6.22-2.3-12.35-4.9-18.23-8.01-1.97-1.05-3.92-2.14-5.81-3.39,4.46.54,8.79,1.56,13.11,2.71,4.27,1.17,8.48,2.51,12.64,4,.43.15.79.41,1.06.74,5.95,7.27,11.59,14.87,15.88,23.27h0Z"
                 id="path24" />
            </g>
            <g
               class="cls-10"
               id="g25">
              <path
                 class="cls-4"
                 d="M860.88,758.78c-5.98-4.17-11.04-9.47-15.74-14.98,0,0,.66.56.66.56-4.87-2.81-9.57-5.96-13.92-9.56-1.45-1.23-2.88-2.48-4.22-3.91,7.34,1.95,14.15,5.38,20.68,9.17,2.75,2.69,4.86,6.05,7.12,9.19,2.02,3.05,3.93,6.15,5.42,9.53h0Z"
                 id="path25" />
            </g>
          </g>
          <path
             class="cls-12"
             d="M188.89,445.66s88.86,108.05,109.78,211.33"
             id="path26" />
          <path
             class="cls-12"
             d="M216.04,684.3s20.15-43.28,100.25-20.59c80.1,22.68,170.47-.62,186.89,36.19"
             id="path27" />
          <path
             class="cls-12"
             d="M121.77,737.92s66.2,58.02,185.1,64.91c118.91,6.89,179.11-24.57,179.11-24.57"
             id="path28" />
          <path
             class="cls-12"
             d="M526.32,502.94s29.05,44.87,20.66,200.04"
             id="path29" />
          <path
             class="cls-12"
             d="M524.72,705.41s-58.86,8.52-26.55,69.97"
             id="path30" />
          <path
             class="cls-12"
             d="M312.88,404.65s17.57,49.75,99.4,50.54"
             id="path31" />
          <path
             class="cls-12"
             d="M500.64,1111.46s37.89-158.77-110.25-171.29"
             id="path32" />
          <path
             class="cls-12"
             d="M125.66,985.73s22.71,92.15,118.11,105.75"
             id="path33" />
          <g
             id="g45">
            <path
               class="cls-6"
               d="M289.4,310.6s-10.32,38.93,37.96,69.92c48.29,30.98,3.62-134.54-37.96-69.92Z"
               id="path34" />
            <path
               class="cls-9"
               d="M317.47,315.02l-4.59,82.98c24,39.41,55.76,56.51,93.22,57.2l1.77-87.22-66.59-73.98-23.81,21.02Z"
               id="path35" />
            <path
               class="cls-9"
               d="M281.98,294.71s19.95,63.38,64.44,21.72c49.39-46.25-59.67-105.93-64.44-21.72Z"
               id="path36" />
            <path
               class="cls-9"
               d="M433.57,183.3c19.39.99,35.55,15.15,39.11,34.23,10.76,57.63,23.6,171.83-42.57,175.52-73.68,4.11-113.41-62.44-113.41-62.44l7.41-111.53c1.52-22.88,21.12-40.3,44.02-39.13l65.44,3.35Z"
               id="path37" />
            <path
               class="cls-6"
               d="M338.13,306.9c6.04-20.73,7.88-44.52,7.09-70.22-.29-9.48,4.42-18.41,12.36-23.59l.04-.03c6.84-4.46,15.31-5.59,23.11-3.16,29.71,9.27,107.08,26.14,138.01-37,0,0-17.03-2.48-38.13-30.72-38.13-51.02-91.63.53-91.63.53-2.99-7.96.42-15.34,9-22.25,0,0-82.1-13.24-101.69,64.09,0,0-44.14,7.24-41.84,52.44,1.53,30.15,27.54,57.73,27.54,57.73,0,0,10.06-30.19,30.72-23.83,20.66,6.36,25.42,36.02,25.42,36.02Z"
               id="path38" />
            <g
               class="cls-10"
               id="g39">
              <path
                 class="cls-4"
                 d="M322.97,338.2c19.17,22.56,43.58,40.14,71.44,50.34-29.55-3.05-58.36-23.79-71.44-50.34h0Z"
                 id="path39" />
            </g>
            <ellipse
               class="cls-6"
               cx="416.77"
               cy="280.92"
               rx="11.12"
               ry="8.89"
               transform="translate(99.6 670.81) rotate(-84.85)"
               id="ellipse39" />
            <ellipse
               class="cls-6"
               cx="465.62"
               cy="280.92"
               rx="11.12"
               ry="8.89"
               transform="translate(144.06 719.47) rotate(-84.85)"
               id="ellipse40" />
            <path
               class="cls-13"
               d="M421.25,245.63s-19.74-10.98-32.81,5.93"
               id="path40" />
            <path
               class="cls-13"
               d="M481.81,252.38s-13.52-18.09-32.37-8.01"
               id="path41" />
            <path
               class="cls-6"
               d="M447.88,271.71c1.04,10.9,2.42,21.03,6.54,30.93.94,2.4,2.4,4.93,3.47,7.27,4.77,11.14-3.38,19.6-13.69,22.24-3.2.85-6.44,1.32-9.7,1.17,2.85-1.55,5.57-3.08,8.1-4.76,5.84-3.85,11.87-9.11,7.6-16.29,0,0-1.08-2.09-1.08-2.09-5.96-11.77-6.53-26.44-1.24-38.47h0Z"
               id="path42" />
            <path
               class="cls-6"
               d="M414.11,341.6c14.93,9.13,24.13,12.72,39.16,1.94,1.89-1.31,3.73-2.68,5.72-3.95-2.55,9.59-11.28,18.29-21.67,18.61-10.27.39-19.93-7.1-23.21-16.6h0Z"
               id="path43" />
            <g
               class="cls-10"
               id="g44">
              <path
                 class="cls-4"
                 d="M307.36,280.92c-9.06,14.07-10.68,23.7,6.31,31.18,4.18,1.95,8.65,3.52,13.18,5.38-7.36.25-14.96-.98-21.57-4.55-14.72-8.27-10.17-24.01,2.08-32.02h0Z"
                 id="path44" />
            </g>
          </g>
          <path
             class="cls-12"
             d="M710.89,707.52s-55.11,14.11-16.3,55.38"
             id="path45" />
          <line
             class="cls-12"
             x1="577.74"
             y1="646.97"
             x2="556.8"
             y2="640.79"
             id="line45" />
          <g
             id="g48">
            <path
               class="cls-2"
               d="M489.29,802.83h252.96v17.03h-269.08v-.91c0-8.9,7.23-16.13,16.13-16.13Z"
               id="path46" />
            <rect
               class="cls-1"
               x="72.24"
               y="819.86"
               width="1005.45"
               height="42.11"
               id="rect46" />
            <path
               class="cls-2"
               d="M772.38,515.25l-93.32,304.61h357.67l75.48-295.2c2.81-11.01-5.5-21.71-16.86-21.71h-306.34c-7.65,0-14.4,4.99-16.64,12.31Z"
               id="path47" />
            <line
               class="cls-14"
               x1="1035.2"
               y1="861.97"
               x2="1077.69"
               y2="1111.46"
               id="line47" />
            <line
               class="cls-14"
               x1="114.73"
               y1="861.97"
               x2="72.24"
               y2="1111.46"
               id="line48" />
          </g>
        </g>
      </g>
    </g>
  </g>
</svg>
